  0
SECTION
  2
HEADER
  9
$ACADVER
  1
AC1014
  9
$HANDSEED
  5
FFFF
  9
$INSUNITS
 70
     4
  9
$MEASUREMENT
 70
     1
  0
ENDSEC
  0
SECTION
  2
TABLES
  0
TABLE
  2
VPORT
  5
8
330
0
100
AcDbSymbolTable
 70
     4
  0
VPORT
  5
2E
330
8
100
AcDbSymbolTableRecord
100
AcDbViewportTableRecord
  2
*ACTIVE
 70
     0
 10
0.0
 20
0.0
 11
1.0
 21
1.0
 12
210.0
 22
148.5
 13
0.0
 23
0.0
 14
10.0
 24
10.0
 15
10.0
 25
10.0
 16
0.0
 26
0.0
 36
1.0
 17
0.0
 27
0.0
 37
0.0
 40
341.0
 41
1.24
 42
50.0
 43
0.0
 44
0.0
 50
0.0
 51
0.0
 71
     0
 72
   100
 73
     1
 74
     3
 75
     0
 76
     0
 77
     0
 78
     0
  0
ENDTAB
  0
TABLE
  2
LTYPE
  5
5
330
0
100
AcDbSymbolTable
 70
     1
  0
LTYPE
  5
14
330
5
100
AcDbSymbolTableRecord
100
AcDbLinetypeTableRecord
  2
BYBLOCK
 70
     0
  3

 72
    65
 73
     0
 40
0.0
  0
LTYPE
  5
15
330
5
100
AcDbSymbolTableRecord
100
AcDbLinetypeTableRecord
  2
BYLAYER
 70
     0
  3

 72
    65
 73
     0
 40
0.0
  0
LTYPE
  5
16
330
5
100
AcDbSymbolTableRecord
100
AcDbLinetypeTableRecord
  2
CONTINUOUS
 70
     0
  3
Solid line
 72
    65
 73
     0
 40
0.0
  0
ENDTAB
  0
TABLE
  2
LAYER
  5
2
100
AcDbSymbolTable
 70
1
  0
LAYER
  5
50
100
AcDbSymbolTableRecord
100
AcDbLayerTableRecord
  2
0
 70
0
  6
CONTINUOUS
  0
ENDTAB
  0
TABLE
  2
STYLE
  5
3
330
0
100
AcDbSymbolTable
 70
     1
  0
STYLE
  5
11
330
3
100
AcDbSymbolTableRecord
100
AcDbTextStyleTableRecord
  2
STANDARD
 70
     0
 40
0.0
 41
1.0
 50
0.0
 71
     0
 42
2.5
  3
txt
  4

  0
ENDTAB
  0
TABLE
  2
VIEW
  5
6
330
0
100
AcDbSymbolTable
 70
     0
  0
ENDTAB
  0
TABLE
  2
UCS
  5
7
330
0
100
AcDbSymbolTable
 70
     0
  0
ENDTAB
  0
TABLE
  2
APPID
  5
9
330
0
100
AcDbSymbolTable
 70
     2
  0
APPID
  5
12
330
9
100
AcDbSymbolTableRecord
100
AcDbRegAppTableRecord
  2
ACAD
 70
     0
  0
ENDTAB
  0
TABLE
  2
DIMSTYLE
  5
A
330
0
100
AcDbSymbolTable
 70
     1
  0
DIMSTYLE
105
27
330
A
100
AcDbSymbolTableRecord
100
AcDbDimStyleTableRecord
  2
ISO-25
 70
     0
  3

  4

  5

  6

  7

 40
1.0
 41
2.5
 42
0.625
 43
3.75
 44
1.25
 45
0.0
 46
0.0
 47
0.0
 48
0.0
140
2.5
141
2.5
142
0.0
143
0.03937007874016
144
1.0
145
0.0
146
1.0
147
0.625
 71
     0
 72
     0
 73
     0
 74
     0
 75
     0
 76
     0
 77
     1
 78
     8
170
     0
171
     3
172
     1
173
     0
174
     0
175
     0
176
     0
177
     0
178
     0
270
     2
271
     2
272
     2
273
     2
274
     3
340
11
275
     0
280
     0
281
     0
282
     0
283
     0
284
     8
285
     0
286
     0
287
     3
288
     0
  0
ENDTAB
  0
TABLE
  2
BLOCK_RECORD
  5
1
330
0
100
AcDbSymbolTable
 70
     1
  0
BLOCK_RECORD
  5
1F
330
1
100
AcDbSymbolTableRecord
100
AcDbBlockTableRecord
  2
*MODEL_SPACE
  0
BLOCK_RECORD
  5
1B
330
1
100
AcDbSymbolTableRecord
100
AcDbBlockTableRecord
  2
*PAPER_SPACE
  0
ENDTAB
  0
ENDSEC
  0
SECTION
  2
BLOCKS
  0
BLOCK
  5
20
330
1F
100
AcDbEntity
  8
0
100
AcDbBlockBegin
  2
*MODEL_SPACE
 70
     0
 10
0.0
 20
0.0
 30
0.0
  3
*MODEL_SPACE
  1

  0
ENDBLK
  5
21
330
1F
100
AcDbEntity
  8
0
100
AcDbBlockEnd
  0
BLOCK
  5
1C
330
1B
100
AcDbEntity
 67
     1
  8
0
100
AcDbBlockBegin
  2
*PAPER_SPACE
  1

  0
ENDBLK
  5
1D
330
1B
100
AcDbEntity
 67
     1
  8
0
100
AcDbBlockEnd
  0
ENDSEC
  0
SECTION
  2
ENTITIES
  0
LWPOLYLINE
  5
100
100
AcDbEntity
  8
0
 62
5
100
AcDbPolyline
 90
4
 70
1
 10
205.250000
 20
112.900000
 30
0.0
 10
212.000000
 20
112.900000
 30
0.0
 10
212.000000
 20
97.900000
 30
0.0
 10
205.250000
 20
97.900000
 30
0.0
  0
LWPOLYLINE
  5
101
100
AcDbEntity
  8
0
 62
7
100
AcDbPolyline
 90
2
 70
0
 10
99.750000
 20
88.400000
 30
0.0
 10
109.250000
 20
77.150000
 30
0.0
  0
LWPOLYLINE
  5
102
100
AcDbEntity
  8
0
 62
7
100
AcDbPolyline
 90
2
 70
0
 10
106.250000
 20
92.900000
 30
0.0
 10
112.500000
 20
86.900000
 30
0.0
  0
LWPOLYLINE
  5
103
100
AcDbEntity
  8
0
 62
5
100
AcDbPolyline
 90
4
 70
1
 10
86.500000
 20
101.400000
 30
0.0
 10
107.250000
 20
101.400000
 30
0.0
 10
107.250000
 20
86.900000
 30
0.0
 10
86.500000
 20
86.900000
 30
0.0
  0
LWPOLYLINE
  5
104
100
AcDbEntity
  8
0
 62
5
100
AcDbPolyline
 90
4
 70
1
 10
110.500000
 20
80.650000
 30
0.0
 10
122.250000
 20
80.650000
 30
0.0
 10
122.250000
 20
66.900000
 30
0.0
 10
110.500000
 20
66.900000
 30
0.0
  0
LWPOLYLINE
  5
105
100
AcDbEntity
  8
0
 62
5
100
AcDbPolyline
 90
4
 70
1
 10
109.250000
 20
88.400000
 30
0.0
 10
199.750000
 20
88.400000
 30
0.0
 10
199.750000
 20
77.150000
 30
0.0
 10
109.250000
 20
77.150000
 30
0.0
  0
LWPOLYLINE
  5
106
100
AcDbEntity
  8
0
 62
5
100
AcDbPolyline
 90
4
 70
1
 10
197.250000
 20
91.400000
 30
0.0
 10
211.750000
 20
91.400000
 30
0.0
 10
211.750000
 20
69.400000
 30
0.0
 10
197.250000
 20
69.400000
 30
0.0
  0
LWPOLYLINE
  5
107
100
AcDbEntity
  8
0
 62
5
100
AcDbPolyline
 90
4
 70
1
 10
134.000000
 20
139.900000
 30
0.0
 10
152.000000
 20
139.900000
 30
0.0
 10
152.000000
 20
85.900000
 30
0.0
 10
134.000000
 20
85.900000
 30
0.0
  0
SPLINE
  5
108
100
AcDbEntity
  8
0
 62
7
100
AcDbSpline
 70
8
 71
3
 72
8
 73
4
 74
0
 40
0
 40
0
 40
0
 40
0
 40
1
 40
1
 40
1
 40
1
 10
120.500000
 20
145.917800
 30
0.0
 10
119.784992
 20
145.917800
 30
0.0
 10
119.140388
 20
145.487089
 30
0.0
 10
118.866766
 20
144.826508
 30
0.0
  0
SPLINE
  5
109
100
AcDbEntity
  8
0
 62
7
100
AcDbSpline
 70
8
 71
3
 72
8
 73
4
 74
0
 40
0
 40
0
 40
0
 40
0
 40
1
 40
1
 40
1
 40
1
 10
118.866766
 20
144.826508
 30
0.0
 10
118.593144
 20
144.165926
 30
0.0
 10
118.744389
 20
143.405564
 30
0.0
 10
119.249977
 20
142.899977
 30
0.0
  0
SPLINE
  5
10a
100
AcDbEntity
  8
0
 62
7
100
AcDbSpline
 70
8
 71
3
 72
8
 73
4
 74
0
 40
0
 40
0
 40
0
 40
0
 40
1
 40
1
 40
1
 40
1
 10
119.249977
 20
142.899977
 30
0.0
 10
119.755564
 20
142.394389
 30
0.0
 10
120.515926
 20
142.243144
 30
0.0
 10
121.176508
 20
142.516766
 30
0.0
  0
SPLINE
  5
10b
100
AcDbEntity
  8
0
 62
7
100
AcDbSpline
 70
8
 71
3
 72
8
 73
4
 74
0
 40
0
 40
0
 40
0
 40
0
 40
1
 40
1
 40
1
 40
1
 10
121.176508
 20
142.516766
 30
0.0
 10
121.837089
 20
142.790388
 30
0.0
 10
122.267800
 20
143.434992
 30
0.0
 10
122.267800
 20
144.150000
 30
0.0
  0
SPLINE
  5
10c
100
AcDbEntity
  8
0
 62
7
100
AcDbSpline
 70
8
 71
3
 72
8
 73
4
 74
0
 40
0
 40
0
 40
0
 40
0
 40
1
 40
1
 40
1
 40
1
 10
122.267800
 20
144.150000
 30
0.0
 10
122.267800
 20
144.618850
 30
0.0
 10
122.081550
 20
145.068497
 30
0.0
 10
121.750023
 20
145.400023
 30
0.0
  0
SPLINE
  5
10d
100
AcDbEntity
  8
0
 62
7
100
AcDbSpline
 70
8
 71
3
 72
8
 73
4
 74
0
 40
0
 40
0
 40
0
 40
0
 40
1
 40
1
 40
1
 40
1
 10
121.750023
 20
145.400023
 30
0.0
 10
121.418497
 20
145.731550
 30
0.0
 10
120.968850
 20
145.917800
 30
0.0
 10
120.500000
 20
145.917800
 30
0.0
  0
LWPOLYLINE
  5
10e
100
AcDbEntity
  8
0
 62
5
100
AcDbPolyline
 90
4
 70
1
 10
126.500000
 20
130.650000
 30
0.0
 10
144.750000
 20
130.650000
 30
0.0
 10
144.750000
 20
108.150000
 30
0.0
 10
126.500000
 20
108.150000
 30
0.0
  0
SPLINE
  5
10f
100
AcDbEntity
  8
0
 62
7
100
AcDbSpline
 70
8
 71
3
 72
8
 73
4
 74
0
 40
0
 40
0
 40
0
 40
0
 40
1
 40
1
 40
1
 40
1
 10
120.500000
 20
95.400000
 30
0.0
 10
119.792191
 20
95.400000
 30
0.0
 10
119.154078
 20
94.973626
 30
0.0
 10
118.883211
 20
94.319696
 30
0.0
  0
SPLINE
  5
110
100
AcDbEntity
  8
0
 62
7
100
AcDbSpline
 70
8
 71
3
 72
8
 73
4
 74
0
 40
0
 40
0
 40
0
 40
0
 40
1
 40
1
 40
1
 40
1
 10
118.883211
 20
94.319696
 30
0.0
 10
118.612344
 20
93.665766
 30
0.0
 10
118.762067
 20
92.913060
 30
0.0
 10
119.262563
 20
92.412563
 30
0.0
  0
SPLINE
  5
111
100
AcDbEntity
  8
0
 62
7
100
AcDbSpline
 70
8
 71
3
 72
8
 73
4
 74
0
 40
0
 40
0
 40
0
 40
0
 40
1
 40
1
 40
1
 40
1
 10
119.262563
 20
92.412563
 30
0.0
 10
119.763060
 20
91.912067
 30
0.0
 10
120.515766
 20
91.762344
 30
0.0
 10
121.169696
 20
92.033211
 30
0.0
  0
SPLINE
  5
112
100
AcDbEntity
  8
0
 62
7
100
AcDbSpline
 70
8
 71
3
 72
8
 73
4
 74
0
 40
0
 40
0
 40
0
 40
0
 40
1
 40
1
 40
1
 40
1
 10
121.169696
 20
92.033211
 30
0.0
 10
121.823626
 20
92.304078
 30
0.0
 10
122.250000
 20
92.942191
 30
0.0
 10
122.250000
 20
93.650000
 30
0.0
  0
SPLINE
  5
113
100
AcDbEntity
  8
0
 62
7
100
AcDbSpline
 70
8
 71
3
 72
8
 73
4
 74
0
 40
0
 40
0
 40
0
 40
0
 40
1
 40
1
 40
1
 40
1
 10
122.250000
 20
93.650000
 30
0.0
 10
122.250000
 20
94.114129
 30
0.0
 10
122.065626
 20
94.559248
 30
0.0
 10
121.737437
 20
94.887437
 30
0.0
  0
SPLINE
  5
114
100
AcDbEntity
  8
0
 62
7
100
AcDbSpline
 70
8
 71
3
 72
8
 73
4
 74
0
 40
0
 40
0
 40
0
 40
0
 40
1
 40
1
 40
1
 40
1
 10
121.737437
 20
94.887437
 30
0.0
 10
121.409248
 20
95.215626
 30
0.0
 10
120.964129
 20
95.400000
 30
0.0
 10
120.500000
 20
95.400000
 30
0.0
  0
LWPOLYLINE
  5
115
100
AcDbEntity
  8
0
 62
7
100
AcDbPolyline
 90
1
 70
1
 10
120.500000
 20
145.917800
 30
0.0
  0
LWPOLYLINE
  5
116
100
AcDbEntity
  8
0
 62
7
100
AcDbPolyline
 90
1
 70
1
 10
120.500000
 20
95.400000
 30
0.0
  0
LWPOLYLINE
  5
117
100
AcDbEntity
  8
0
 62
5
100
AcDbPolyline
 90
4
 70
1
 10
77.000000
 20
131.150000
 30
0.0
 10
83.750000
 20
131.150000
 30
0.0
 10
83.750000
 20
119.650000
 30
0.0
 10
77.000000
 20
119.650000
 30
0.0
  0
LWPOLYLINE
  5
118
100
AcDbEntity
  8
0
 62
5
100
AcDbPolyline
 90
4
 70
1
 10
77.250000
 20
108.775000
 30
0.0
 10
92.250000
 20
108.775000
 30
0.0
 10
92.250000
 20
88.775000
 30
0.0
 10
77.250000
 20
88.775000
 30
0.0
  0
LWPOLYLINE
  5
119
100
AcDbEntity
  8
0
 62
5
100
AcDbPolyline
 90
4
 70
1
 10
100.250000
 20
87.775000
 30
0.0
 10
104.500000
 20
87.775000
 30
0.0
 10
104.500000
 20
69.025000
 30
0.0
 10
100.250000
 20
69.025000
 30
0.0
  0
SPLINE
  5
11a
100
AcDbEntity
  8
0
 62
7
100
AcDbSpline
 70
8
 71
3
 72
8
 73
4
 74
0
 40
0
 40
0
 40
0
 40
0
 40
1
 40
1
 40
1
 40
1
 10
81.000000
 20
116.400000
 30
0.0
 10
80.393307
 20
116.400000
 30
0.0
 10
79.846352
 20
116.034537
 30
0.0
 10
79.614181
 20
115.474025
 30
0.0
  0
SPLINE
  5
11b
100
AcDbEntity
  8
0
 62
7
100
AcDbSpline
 70
8
 71
3
 72
8
 73
4
 74
0
 40
0
 40
0
 40
0
 40
0
 40
1
 40
1
 40
1
 40
1
 10
79.614181
 20
115.474025
 30
0.0
 10
79.382009
 20
114.913514
 30
0.0
 10
79.510343
 20
114.268337
 30
0.0
 10
79.939340
 20
113.839340
 30
0.0
  0
SPLINE
  5
11c
100
AcDbEntity
  8
0
 62
7
100
AcDbSpline
 70
8
 71
3
 72
8
 73
4
 74
0
 40
0
 40
0
 40
0
 40
0
 40
1
 40
1
 40
1
 40
1
 10
79.939340
 20
113.839340
 30
0.0
 10
80.368337
 20
113.410343
 30
0.0
 10
81.013514
 20
113.282009
 30
0.0
 10
81.574025
 20
113.514181
 30
0.0
  0
SPLINE
  5
11d
100
AcDbEntity
  8
0
 62
7
100
AcDbSpline
 70
8
 71
3
 72
8
 73
4
 74
0
 40
0
 40
0
 40
0
 40
0
 40
1
 40
1
 40
1
 40
1
 10
81.574025
 20
113.514181
 30
0.0
 10
82.134537
 20
113.746352
 30
0.0
 10
82.500000
 20
114.293307
 30
0.0
 10
82.500000
 20
114.900000
 30
0.0
  0
SPLINE
  5
11e
100
AcDbEntity
  8
0
 62
7
100
AcDbSpline
 70
8
 71
3
 72
8
 73
4
 74
0
 40
0
 40
0
 40
0
 40
0
 40
1
 40
1
 40
1
 40
1
 10
82.500000
 20
114.900000
 30
0.0
 10
82.500000
 20
115.297825
 30
0.0
 10
82.341965
 20
115.679356
 30
0.0
 10
82.060660
 20
115.960660
 30
0.0
  0
SPLINE
  5
11f
100
AcDbEntity
  8
0
 62
7
100
AcDbSpline
 70
8
 71
3
 72
8
 73
4
 74
0
 40
0
 40
0
 40
0
 40
0
 40
1
 40
1
 40
1
 40
1
 10
82.060660
 20
115.960660
 30
0.0
 10
81.779356
 20
116.241965
 30
0.0
 10
81.397825
 20
116.400000
 30
0.0
 10
81.000000
 20
116.400000
 30
0.0
  0
LWPOLYLINE
  5
120
100
AcDbEntity
  8
0
 62
5
100
AcDbPolyline
 90
4
 70
1
 10
81.750000
 20
87.650000
 30
0.0
 10
86.000000
 20
87.650000
 30
0.0
 10
86.000000
 20
68.900000
 30
0.0
 10
81.750000
 20
68.900000
 30
0.0
  0
SPLINE
  5
121
100
AcDbEntity
  8
0
 62
7
100
AcDbSpline
 70
8
 71
3
 72
8
 73
4
 74
0
 40
0
 40
0
 40
0
 40
0
 40
1
 40
1
 40
1
 40
1
 10
189.000000
 20
73.400000
 30
0.0
 10
188.393307
 20
73.400000
 30
0.0
 10
187.846352
 20
73.034537
 30
0.0
 10
187.614181
 20
72.474025
 30
0.0
  0
SPLINE
  5
122
100
AcDbEntity
  8
0
 62
7
100
AcDbSpline
 70
8
 71
3
 72
8
 73
4
 74
0
 40
0
 40
0
 40
0
 40
0
 40
1
 40
1
 40
1
 40
1
 10
187.614181
 20
72.474025
 30
0.0
 10
187.382009
 20
71.913514
 30
0.0
 10
187.510343
 20
71.268337
 30
0.0
 10
187.939340
 20
70.839340
 30
0.0
  0
SPLINE
  5
123
100
AcDbEntity
  8
0
 62
7
100
AcDbSpline
 70
8
 71
3
 72
8
 73
4
 74
0
 40
0
 40
0
 40
0
 40
0
 40
1
 40
1
 40
1
 40
1
 10
187.939340
 20
70.839340
 30
0.0
 10
188.368337
 20
70.410343
 30
0.0
 10
189.013514
 20
70.282009
 30
0.0
 10
189.574025
 20
70.514181
 30
0.0
  0
SPLINE
  5
124
100
AcDbEntity
  8
0
 62
7
100
AcDbSpline
 70
8
 71
3
 72
8
 73
4
 74
0
 40
0
 40
0
 40
0
 40
0
 40
1
 40
1
 40
1
 40
1
 10
189.574025
 20
70.514181
 30
0.0
 10
190.134537
 20
70.746352
 30
0.0
 10
190.500000
 20
71.293307
 30
0.0
 10
190.500000
 20
71.900000
 30
0.0
  0
SPLINE
  5
125
100
AcDbEntity
  8
0
 62
7
100
AcDbSpline
 70
8
 71
3
 72
8
 73
4
 74
0
 40
0
 40
0
 40
0
 40
0
 40
1
 40
1
 40
1
 40
1
 10
190.500000
 20
71.900000
 30
0.0
 10
190.500000
 20
72.297825
 30
0.0
 10
190.341965
 20
72.679356
 30
0.0
 10
190.060660
 20
72.960660
 30
0.0
  0
SPLINE
  5
126
100
AcDbEntity
  8
0
 62
7
100
AcDbSpline
 70
8
 71
3
 72
8
 73
4
 74
0
 40
0
 40
0
 40
0
 40
0
 40
1
 40
1
 40
1
 40
1
 10
190.060660
 20
72.960660
 30
0.0
 10
189.779356
 20
73.241965
 30
0.0
 10
189.397825
 20
73.400000
 30
0.0
 10
189.000000
 20
73.400000
 30
0.0
  0
LWPOLYLINE
  5
127
100
AcDbEntity
  8
0
 62
7
100
AcDbPolyline
 90
1
 70
1
 10
81.000000
 20
116.400000
 30
0.0
  0
SPLINE
  5
128
100
AcDbEntity
  8
0
 62
7
100
AcDbSpline
 70
8
 71
3
 72
8
 73
4
 74
0
 40
0
 40
0
 40
0
 40
0
 40
1
 40
1
 40
1
 40
1
 10
108.000000
 20
73.400000
 30
0.0
 10
107.393307
 20
73.400000
 30
0.0
 10
106.846352
 20
73.034537
 30
0.0
 10
106.614181
 20
72.474025
 30
0.0
  0
SPLINE
  5
129
100
AcDbEntity
  8
0
 62
7
100
AcDbSpline
 70
8
 71
3
 72
8
 73
4
 74
0
 40
0
 40
0
 40
0
 40
0
 40
1
 40
1
 40
1
 40
1
 10
106.614181
 20
72.474025
 30
0.0
 10
106.382009
 20
71.913514
 30
0.0
 10
106.510343
 20
71.268337
 30
0.0
 10
106.939340
 20
70.839340
 30
0.0
  0
SPLINE
  5
12a
100
AcDbEntity
  8
0
 62
7
100
AcDbSpline
 70
8
 71
3
 72
8
 73
4
 74
0
 40
0
 40
0
 40
0
 40
0
 40
1
 40
1
 40
1
 40
1
 10
106.939340
 20
70.839340
 30
0.0
 10
107.368337
 20
70.410343
 30
0.0
 10
108.013514
 20
70.282009
 30
0.0
 10
108.574025
 20
70.514181
 30
0.0
  0
SPLINE
  5
12b
100
AcDbEntity
  8
0
 62
7
100
AcDbSpline
 70
8
 71
3
 72
8
 73
4
 74
0
 40
0
 40
0
 40
0
 40
0
 40
1
 40
1
 40
1
 40
1
 10
108.574025
 20
70.514181
 30
0.0
 10
109.134537
 20
70.746352
 30
0.0
 10
109.500000
 20
71.293307
 30
0.0
 10
109.500000
 20
71.900000
 30
0.0
  0
SPLINE
  5
12c
100
AcDbEntity
  8
0
 62
7
100
AcDbSpline
 70
8
 71
3
 72
8
 73
4
 74
0
 40
0
 40
0
 40
0
 40
0
 40
1
 40
1
 40
1
 40
1
 10
109.500000
 20
71.900000
 30
0.0
 10
109.500000
 20
72.297825
 30
0.0
 10
109.341965
 20
72.679356
 30
0.0
 10
109.060660
 20
72.960660
 30
0.0
  0
SPLINE
  5
12d
100
AcDbEntity
  8
0
 62
7
100
AcDbSpline
 70
8
 71
3
 72
8
 73
4
 74
0
 40
0
 40
0
 40
0
 40
0
 40
1
 40
1
 40
1
 40
1
 10
109.060660
 20
72.960660
 30
0.0
 10
108.779356
 20
73.241965
 30
0.0
 10
108.397825
 20
73.400000
 30
0.0
 10
108.000000
 20
73.400000
 30
0.0
  0
LWPOLYLINE
  5
12e
100
AcDbEntity
  8
0
 62
7
100
AcDbPolyline
 90
1
 70
1
 10
189.000000
 20
73.400000
 30
0.0
  0
SPLINE
  5
12f
100
AcDbEntity
  8
0
 62
7
100
AcDbSpline
 70
8
 71
3
 72
8
 73
4
 74
0
 40
0
 40
0
 40
0
 40
0
 40
1
 40
1
 40
1
 40
1
 10
138.000000
 20
155.400000
 30
0.0
 10
137.393307
 20
155.400000
 30
0.0
 10
136.846352
 20
155.034537
 30
0.0
 10
136.614181
 20
154.474025
 30
0.0
  0
SPLINE
  5
130
100
AcDbEntity
  8
0
 62
7
100
AcDbSpline
 70
8
 71
3
 72
8
 73
4
 74
0
 40
0
 40
0
 40
0
 40
0
 40
1
 40
1
 40
1
 40
1
 10
136.614181
 20
154.474025
 30
0.0
 10
136.382009
 20
153.913514
 30
0.0
 10
136.510343
 20
153.268337
 30
0.0
 10
136.939340
 20
152.839340
 30
0.0
  0
SPLINE
  5
131
100
AcDbEntity
  8
0
 62
7
100
AcDbSpline
 70
8
 71
3
 72
8
 73
4
 74
0
 40
0
 40
0
 40
0
 40
0
 40
1
 40
1
 40
1
 40
1
 10
136.939340
 20
152.839340
 30
0.0
 10
137.368337
 20
152.410343
 30
0.0
 10
138.013514
 20
152.282009
 30
0.0
 10
138.574025
 20
152.514181
 30
0.0
  0
SPLINE
  5
132
100
AcDbEntity
  8
0
 62
7
100
AcDbSpline
 70
8
 71
3
 72
8
 73
4
 74
0
 40
0
 40
0
 40
0
 40
0
 40
1
 40
1
 40
1
 40
1
 10
138.574025
 20
152.514181
 30
0.0
 10
139.134537
 20
152.746352
 30
0.0
 10
139.500000
 20
153.293307
 30
0.0
 10
139.500000
 20
153.900000
 30
0.0
  0
SPLINE
  5
133
100
AcDbEntity
  8
0
 62
7
100
AcDbSpline
 70
8
 71
3
 72
8
 73
4
 74
0
 40
0
 40
0
 40
0
 40
0
 40
1
 40
1
 40
1
 40
1
 10
139.500000
 20
153.900000
 30
0.0
 10
139.500000
 20
154.297825
 30
0.0
 10
139.341965
 20
154.679356
 30
0.0
 10
139.060660
 20
154.960660
 30
0.0
  0
SPLINE
  5
134
100
AcDbEntity
  8
0
 62
7
100
AcDbSpline
 70
8
 71
3
 72
8
 73
4
 74
0
 40
0
 40
0
 40
0
 40
0
 40
1
 40
1
 40
1
 40
1
 10
139.060660
 20
154.960660
 30
0.0
 10
138.779356
 20
155.241965
 30
0.0
 10
138.397825
 20
155.400000
 30
0.0
 10
138.000000
 20
155.400000
 30
0.0
  0
LWPOLYLINE
  5
135
100
AcDbEntity
  8
0
 62
7
100
AcDbPolyline
 90
1
 70
1
 10
108.000000
 20
73.400000
 30
0.0
  0
LWPOLYLINE
  5
136
100
AcDbEntity
  8
0
 62
7
100
AcDbPolyline
 90
1
 70
1
 10
138.000000
 20
155.400000
 30
0.0
  0
SPLINE
  5
137
100
AcDbEntity
  8
0
 62
7
100
AcDbSpline
 70
8
 71
3
 72
8
 73
4
 74
0
 40
0
 40
0
 40
0
 40
0
 40
1
 40
1
 40
1
 40
1
 10
189.000000
 20
73.500000
 30
0.0
 10
188.352860
 20
73.500000
 30
0.0
 10
187.769442
 20
73.110173
 30
0.0
 10
187.521793
 20
72.512293
 30
0.0
  0
SPLINE
  5
138
100
AcDbEntity
  8
0
 62
7
100
AcDbSpline
 70
8
 71
3
 72
8
 73
4
 74
0
 40
0
 40
0
 40
0
 40
0
 40
1
 40
1
 40
1
 40
1
 10
187.521793
 20
72.512293
 30
0.0
 10
187.274143
 20
71.914414
 30
0.0
 10
187.411032
 20
71.226226
 30
0.0
 10
187.868629
 20
70.768629
 30
0.0
  0
SPLINE
  5
139
100
AcDbEntity
  8
0
 62
7
100
AcDbSpline
 70
8
 71
3
 72
8
 73
4
 74
0
 40
0
 40
0
 40
0
 40
0
 40
1
 40
1
 40
1
 40
1
 10
187.868629
 20
70.768629
 30
0.0
 10
188.326226
 20
70.311032
 30
0.0
 10
189.014414
 20
70.174143
 30
0.0
 10
189.612293
 20
70.421793
 30
0.0
  0
SPLINE
  5
13a
100
AcDbEntity
  8
0
 62
7
100
AcDbSpline
 70
8
 71
3
 72
8
 73
4
 74
0
 40
0
 40
0
 40
0
 40
0
 40
1
 40
1
 40
1
 40
1
 10
189.612293
 20
70.421793
 30
0.0
 10
190.210173
 20
70.669442
 30
0.0
 10
190.600000
 20
71.252860
 30
0.0
 10
190.600000
 20
71.900000
 30
0.0
  0
SPLINE
  5
13b
100
AcDbEntity
  8
0
 62
7
100
AcDbSpline
 70
8
 71
3
 72
8
 73
4
 74
0
 40
0
 40
0
 40
0
 40
0
 40
1
 40
1
 40
1
 40
1
 10
190.600000
 20
71.900000
 30
0.0
 10
190.600000
 20
72.324346
 30
0.0
 10
190.431429
 20
72.731313
 30
0.0
 10
190.131371
 20
73.031371
 30
0.0
  0
SPLINE
  5
13c
100
AcDbEntity
  8
0
 62
7
100
AcDbSpline
 70
8
 71
3
 72
8
 73
4
 74
0
 40
0
 40
0
 40
0
 40
0
 40
1
 40
1
 40
1
 40
1
 10
190.131371
 20
73.031371
 30
0.0
 10
189.831313
 20
73.331429
 30
0.0
 10
189.424346
 20
73.500000
 30
0.0
 10
189.000000
 20
73.500000
 30
0.0
  0
LWPOLYLINE
  5
13d
100
AcDbEntity
  8
0
 62
5
100
AcDbPolyline
 90
4
 70
1
 10
77.000000
 20
156.900000
 30
0.0
 10
212.000000
 20
156.900000
 30
0.0
 10
212.000000
 20
68.900000
 30
0.0
 10
77.000000
 20
68.900000
 30
0.0
  0
SPLINE
  5
13e
100
AcDbEntity
  8
0
 62
7
100
AcDbSpline
 70
8
 71
3
 72
8
 73
4
 74
0
 40
0
 40
0
 40
0
 40
0
 40
1
 40
1
 40
1
 40
1
 10
81.000000
 20
116.500000
 30
0.0
 10
80.352860
 20
116.500000
 30
0.0
 10
79.769442
 20
116.110173
 30
0.0
 10
79.521793
 20
115.512293
 30
0.0
  0
SPLINE
  5
13f
100
AcDbEntity
  8
0
 62
7
100
AcDbSpline
 70
8
 71
3
 72
8
 73
4
 74
0
 40
0
 40
0
 40
0
 40
0
 40
1
 40
1
 40
1
 40
1
 10
79.521793
 20
115.512293
 30
0.0
 10
79.274143
 20
114.914414
 30
0.0
 10
79.411032
 20
114.226226
 30
0.0
 10
79.868629
 20
113.768629
 30
0.0
  0
SPLINE
  5
140
100
AcDbEntity
  8
0
 62
7
100
AcDbSpline
 70
8
 71
3
 72
8
 73
4
 74
0
 40
0
 40
0
 40
0
 40
0
 40
1
 40
1
 40
1
 40
1
 10
79.868629
 20
113.768629
 30
0.0
 10
80.326226
 20
113.311032
 30
0.0
 10
81.014414
 20
113.174143
 30
0.0
 10
81.612293
 20
113.421793
 30
0.0
  0
SPLINE
  5
141
100
AcDbEntity
  8
0
 62
7
100
AcDbSpline
 70
8
 71
3
 72
8
 73
4
 74
0
 40
0
 40
0
 40
0
 40
0
 40
1
 40
1
 40
1
 40
1
 10
81.612293
 20
113.421793
 30
0.0
 10
82.210173
 20
113.669442
 30
0.0
 10
82.600000
 20
114.252860
 30
0.0
 10
82.600000
 20
114.900000
 30
0.0
  0
SPLINE
  5
142
100
AcDbEntity
  8
0
 62
7
100
AcDbSpline
 70
8
 71
3
 72
8
 73
4
 74
0
 40
0
 40
0
 40
0
 40
0
 40
1
 40
1
 40
1
 40
1
 10
82.600000
 20
114.900000
 30
0.0
 10
82.600000
 20
115.324346
 30
0.0
 10
82.431429
 20
115.731313
 30
0.0
 10
82.131371
 20
116.031371
 30
0.0
  0
SPLINE
  5
143
100
AcDbEntity
  8
0
 62
7
100
AcDbSpline
 70
8
 71
3
 72
8
 73
4
 74
0
 40
0
 40
0
 40
0
 40
0
 40
1
 40
1
 40
1
 40
1
 10
82.131371
 20
116.031371
 30
0.0
 10
81.831313
 20
116.331429
 30
0.0
 10
81.424346
 20
116.500000
 30
0.0
 10
81.000000
 20
116.500000
 30
0.0
  0
LWPOLYLINE
  5
144
100
AcDbEntity
  8
0
 62
7
100
AcDbPolyline
 90
1
 70
1
 10
189.000000
 20
73.500000
 30
0.0
  0
LWPOLYLINE
  5
145
100
AcDbEntity
  8
0
 62
7
100
AcDbPolyline
 90
1
 70
1
 10
81.000000
 20
116.500000
 30
0.0
  0
LWPOLYLINE
  5
146
100
AcDbEntity
  8
0
 62
2
100
AcDbPolyline
 90
4
 70
1
 10
112.000000
 20
151.900000
 30
0.0
 10
129.000000
 20
151.900000
 30
0.0
 10
129.000000
 20
131.100000
 30
0.0
 10
112.000000
 20
131.100000
 30
0.0
  0
LWPOLYLINE
  5
147
100
AcDbEntity
  8
0
 62
2
100
AcDbPolyline
 90
4
 70
1
 10
77.000000
 20
156.900000
 30
0.0
 10
212.000000
 20
156.900000
 30
0.0
 10
212.000000
 20
68.900000
 30
0.0
 10
77.000000
 20
68.900000
 30
0.0
  0
SPLINE
  5
148
100
AcDbEntity
  8
0
 62
7
100
AcDbSpline
 70
8
 71
3
 72
8
 73
4
 74
0
 40
0
 40
0
 40
0
 40
0
 40
1
 40
1
 40
1
 40
1
 10
138.000000
 20
155.500000
 30
0.0
 10
137.352860
 20
155.500000
 30
0.0
 10
136.769442
 20
155.110173
 30
0.0
 10
136.521793
 20
154.512293
 30
0.0
  0
SPLINE
  5
149
100
AcDbEntity
  8
0
 62
7
100
AcDbSpline
 70
8
 71
3
 72
8
 73
4
 74
0
 40
0
 40
0
 40
0
 40
0
 40
1
 40
1
 40
1
 40
1
 10
136.521793
 20
154.512293
 30
0.0
 10
136.274143
 20
153.914414
 30
0.0
 10
136.411032
 20
153.226226
 30
0.0
 10
136.868629
 20
152.768629
 30
0.0
  0
SPLINE
  5
14a
100
AcDbEntity
  8
0
 62
7
100
AcDbSpline
 70
8
 71
3
 72
8
 73
4
 74
0
 40
0
 40
0
 40
0
 40
0
 40
1
 40
1
 40
1
 40
1
 10
136.868629
 20
152.768629
 30
0.0
 10
137.326226
 20
152.311032
 30
0.0
 10
138.014414
 20
152.174143
 30
0.0
 10
138.612293
 20
152.421793
 30
0.0
  0
SPLINE
  5
14b
100
AcDbEntity
  8
0
 62
7
100
AcDbSpline
 70
8
 71
3
 72
8
 73
4
 74
0
 40
0
 40
0
 40
0
 40
0
 40
1
 40
1
 40
1
 40
1
 10
138.612293
 20
152.421793
 30
0.0
 10
139.210173
 20
152.669442
 30
0.0
 10
139.600000
 20
153.252860
 30
0.0
 10
139.600000
 20
153.900000
 30
0.0
  0
SPLINE
  5
14c
100
AcDbEntity
  8
0
 62
7
100
AcDbSpline
 70
8
 71
3
 72
8
 73
4
 74
0
 40
0
 40
0
 40
0
 40
0
 40
1
 40
1
 40
1
 40
1
 10
139.600000
 20
153.900000
 30
0.0
 10
139.600000
 20
154.324346
 30
0.0
 10
139.431429
 20
154.731313
 30
0.0
 10
139.131371
 20
155.031371
 30
0.0
  0
SPLINE
  5
14d
100
AcDbEntity
  8
0
 62
7
100
AcDbSpline
 70
8
 71
3
 72
8
 73
4
 74
0
 40
0
 40
0
 40
0
 40
0
 40
1
 40
1
 40
1
 40
1
 10
139.131371
 20
155.031371
 30
0.0
 10
138.831313
 20
155.331429
 30
0.0
 10
138.424346
 20
155.500000
 30
0.0
 10
138.000000
 20
155.500000
 30
0.0
  0
LWPOLYLINE
  5
14e
100
AcDbEntity
  8
0
 62
2
100
AcDbPolyline
 90
4
 70
1
 10
112.000000
 20
106.700000
 30
0.0
 10
129.000000
 20
106.700000
 30
0.0
 10
129.000000
 20
85.900000
 30
0.0
 10
112.000000
 20
85.900000
 30
0.0
  0
SPLINE
  5
14f
100
AcDbEntity
  8
0
 62
7
100
AcDbSpline
 70
8
 71
3
 72
8
 73
4
 74
0
 40
0
 40
0
 40
0
 40
0
 40
1
 40
1
 40
1
 40
1
 10
108.000000
 20
73.500000
 30
0.0
 10
107.352860
 20
73.500000
 30
0.0
 10
106.769442
 20
73.110173
 30
0.0
 10
106.521793
 20
72.512293
 30
0.0
  0
SPLINE
  5
150
100
AcDbEntity
  8
0
 62
7
100
AcDbSpline
 70
8
 71
3
 72
8
 73
4
 74
0
 40
0
 40
0
 40
0
 40
0
 40
1
 40
1
 40
1
 40
1
 10
106.521793
 20
72.512293
 30
0.0
 10
106.274143
 20
71.914414
 30
0.0
 10
106.411032
 20
71.226226
 30
0.0
 10
106.868629
 20
70.768629
 30
0.0
  0
SPLINE
  5
151
100
AcDbEntity
  8
0
 62
7
100
AcDbSpline
 70
8
 71
3
 72
8
 73
4
 74
0
 40
0
 40
0
 40
0
 40
0
 40
1
 40
1
 40
1
 40
1
 10
106.868629
 20
70.768629
 30
0.0
 10
107.326226
 20
70.311032
 30
0.0
 10
108.014414
 20
70.174143
 30
0.0
 10
108.612293
 20
70.421793
 30
0.0
  0
SPLINE
  5
152
100
AcDbEntity
  8
0
 62
7
100
AcDbSpline
 70
8
 71
3
 72
8
 73
4
 74
0
 40
0
 40
0
 40
0
 40
0
 40
1
 40
1
 40
1
 40
1
 10
108.612293
 20
70.421793
 30
0.0
 10
109.210173
 20
70.669442
 30
0.0
 10
109.600000
 20
71.252860
 30
0.0
 10
109.600000
 20
71.900000
 30
0.0
  0
SPLINE
  5
153
100
AcDbEntity
  8
0
 62
7
100
AcDbSpline
 70
8
 71
3
 72
8
 73
4
 74
0
 40
0
 40
0
 40
0
 40
0
 40
1
 40
1
 40
1
 40
1
 10
109.600000
 20
71.900000
 30
0.0
 10
109.600000
 20
72.783656
 30
0.0
 10
108.883656
 20
73.500000
 30
0.0
 10
108.000000
 20
73.500000
 30
0.0
  0
LWPOLYLINE
  5
154
100
AcDbEntity
  8
0
 62
7
100
AcDbPolyline
 90
1
 70
1
 10
138.000000
 20
155.500000
 30
0.0
  0
LWPOLYLINE
  5
155
100
AcDbEntity
  8
0
 62
7
100
AcDbPolyline
 90
1
 70
1
 10
108.000000
 20
73.500000
 30
0.0
  0
ENDSEC
  0
SECTION
  2
OBJECTS
  0
DICTIONARY
  5
C
330
0
100
AcDbDictionary
  3
ACAD_GROUP
350
D
  3
ACAD_MLINESTYLE
350
17
  0
DICTIONARY
  5
D
330
C
100
AcDbDictionary
  0
DICTIONARY
  5
1A
330
C
100
AcDbDictionary
  0
DICTIONARY
  5
17
330
C
100
AcDbDictionary
  3
STANDARD
350
18
  0
DICTIONARY
  5
19
330
C
100
AcDbDictionary
  0
ENDSEC
  0
EOF
